<mxfile host="65bd71144e">
    <diagram id="I-GQMskVxhY4szGE62NP" name="Page-1">
        <mxGraphModel dx="5470" dy="3723" grid="1" gridSize="10" guides="1" tooltips="1" connect="1" arrows="1" fold="1" page="1" pageScale="1" pageWidth="850" pageHeight="1100" math="0" shadow="0">
            <root>
                <mxCell id="0"/>
                <mxCell id="1" parent="0"/>
                <mxCell id="79" style="edgeStyle=none;html=1;" edge="1" parent="1" source="2" target="3">
                    <mxGeometry relative="1" as="geometry"/>
                </mxCell>
                <mxCell id="2" value="make.cvgroup" style="whiteSpace=wrap;html=1;" vertex="1" parent="1">
                    <mxGeometry x="-580" y="190" width="120" height="60" as="geometry"/>
                </mxCell>
                <mxCell id="82" style="edgeStyle=none;html=1;" edge="1" parent="1" source="3" target="4">
                    <mxGeometry relative="1" as="geometry"/>
                </mxCell>
                <mxCell id="3" value="make.cvgroup.balanced" style="whiteSpace=wrap;html=1;" vertex="1" parent="1">
                    <mxGeometry x="-410" y="190" width="120" height="60" as="geometry"/>
                </mxCell>
                <mxCell id="91" style="edgeStyle=none;html=1;" edge="1" parent="1" source="4" target="14">
                    <mxGeometry relative="1" as="geometry"/>
                </mxCell>
                <mxCell id="92" style="edgeStyle=none;html=1;" edge="1" parent="1" source="4" target="15">
                    <mxGeometry relative="1" as="geometry"/>
                </mxCell>
                <mxCell id="93" style="edgeStyle=none;html=1;" edge="1" parent="1" source="4" target="6">
                    <mxGeometry relative="1" as="geometry"/>
                </mxCell>
                <mxCell id="94" style="edgeStyle=none;html=1;" edge="1" parent="1" source="4" target="7">
                    <mxGeometry relative="1" as="geometry"/>
                </mxCell>
                <mxCell id="95" style="edgeStyle=none;html=1;" edge="1" parent="1" source="4" target="13">
                    <mxGeometry relative="1" as="geometry"/>
                </mxCell>
                <mxCell id="4" value="cvgroup" style="whiteSpace=wrap;html=1;" vertex="1" parent="1">
                    <mxGeometry x="-230" y="190" width="120" height="60" as="geometry"/>
                </mxCell>
                <mxCell id="96" style="edgeStyle=none;html=1;" edge="1" parent="1" source="6" target="71">
                    <mxGeometry relative="1" as="geometry"/>
                </mxCell>
                <mxCell id="6" value="mu0.pred" style="whiteSpace=wrap;html=1;" vertex="1" parent="1">
                    <mxGeometry x="-210" y="570" width="120" height="60" as="geometry"/>
                </mxCell>
                <mxCell id="97" style="edgeStyle=none;html=1;" edge="1" parent="1" source="7" target="71">
                    <mxGeometry relative="1" as="geometry"/>
                </mxCell>
                <mxCell id="7" value="mu1.pred" style="whiteSpace=wrap;html=1;" vertex="1" parent="1">
                    <mxGeometry x="20" y="750" width="120" height="60" as="geometry"/>
                </mxCell>
                <mxCell id="98" style="edgeStyle=none;html=1;" edge="1" parent="1" source="8" target="71">
                    <mxGeometry relative="1" as="geometry"/>
                </mxCell>
                <mxCell id="8" value="tau.pred" style="whiteSpace=wrap;html=1;" vertex="1" parent="1">
                    <mxGeometry x="250" y="-20" width="120" height="60" as="geometry"/>
                </mxCell>
                <mxCell id="9" value="gbm" style="whiteSpace=wrap;html=1;" vertex="1" parent="1">
                    <mxGeometry x="440" y="680" width="120" height="60" as="geometry"/>
                </mxCell>
                <mxCell id="61" style="edgeStyle=none;html=1;" edge="1" parent="1" source="10" target="4">
                    <mxGeometry relative="1" as="geometry"/>
                </mxCell>
                <mxCell id="62" style="edgeStyle=none;html=1;" edge="1" parent="1" source="10" target="6">
                    <mxGeometry relative="1" as="geometry"/>
                </mxCell>
                <mxCell id="63" style="edgeStyle=none;html=1;" edge="1" parent="1" source="10" target="7">
                    <mxGeometry relative="1" as="geometry"/>
                </mxCell>
                <mxCell id="64" style="edgeStyle=none;html=1;" edge="1" parent="1" source="10" target="14">
                    <mxGeometry relative="1" as="geometry"/>
                </mxCell>
                <mxCell id="65" style="edgeStyle=none;html=1;" edge="1" parent="1" source="10" target="15">
                    <mxGeometry relative="1" as="geometry"/>
                </mxCell>
                <mxCell id="66" style="edgeStyle=none;html=1;" edge="1" parent="1" source="10" target="11">
                    <mxGeometry relative="1" as="geometry"/>
                </mxCell>
                <mxCell id="67" style="edgeStyle=none;html=1;" edge="1" parent="1" source="10" target="12">
                    <mxGeometry relative="1" as="geometry"/>
                </mxCell>
                <mxCell id="68" style="edgeStyle=none;html=1;" edge="1" parent="1" source="10" target="16">
                    <mxGeometry relative="1" as="geometry"/>
                </mxCell>
                <mxCell id="69" style="edgeStyle=none;html=1;" edge="1" parent="1" source="10" target="17">
                    <mxGeometry relative="1" as="geometry"/>
                </mxCell>
                <mxCell id="10" value="job_binary" style="whiteSpace=wrap;html=1;" vertex="1" parent="1">
                    <mxGeometry x="-530" y="740" width="120" height="60" as="geometry"/>
                </mxCell>
                <mxCell id="102" style="edgeStyle=none;html=1;" edge="1" parent="1" source="11" target="71">
                    <mxGeometry relative="1" as="geometry"/>
                </mxCell>
                <mxCell id="11" value="var0.pred" style="whiteSpace=wrap;html=1;" vertex="1" parent="1">
                    <mxGeometry x="-30" y="50" width="120" height="60" as="geometry"/>
                </mxCell>
                <mxCell id="103" style="edgeStyle=none;html=1;" edge="1" parent="1" source="12" target="71">
                    <mxGeometry relative="1" as="geometry"/>
                </mxCell>
                <mxCell id="12" value="var1.pred" style="whiteSpace=wrap;html=1;" vertex="1" parent="1">
                    <mxGeometry x="-30" y="-200" width="120" height="60" as="geometry"/>
                </mxCell>
                <mxCell id="100" style="edgeStyle=none;html=1;" edge="1" parent="1" source="13" target="11">
                    <mxGeometry relative="1" as="geometry"/>
                </mxCell>
                <mxCell id="101" style="edgeStyle=none;html=1;" edge="1" parent="1" source="13" target="12">
                    <mxGeometry relative="1" as="geometry"/>
                </mxCell>
                <mxCell id="13" value="fvar" style="whiteSpace=wrap;html=1;" vertex="1" parent="1">
                    <mxGeometry x="-20" y="-80" width="120" height="60" as="geometry"/>
                </mxCell>
                <mxCell id="14" value="fmu0" style="whiteSpace=wrap;html=1;" vertex="1" parent="1">
                    <mxGeometry x="250" y="80" width="120" height="60" as="geometry"/>
                </mxCell>
                <mxCell id="15" value="fmu1" style="whiteSpace=wrap;html=1;" vertex="1" parent="1">
                    <mxGeometry x="600" y="430" width="120" height="60" as="geometry"/>
                </mxCell>
                <mxCell id="105" style="edgeStyle=none;html=1;" edge="1" parent="1" source="16" target="48">
                    <mxGeometry relative="1" as="geometry"/>
                </mxCell>
                <mxCell id="16" value="correction1" style="whiteSpace=wrap;html=1;" vertex="1" parent="1">
                    <mxGeometry x="850" y="1150" width="120" height="60" as="geometry"/>
                </mxCell>
                <mxCell id="106" style="edgeStyle=none;html=1;" edge="1" parent="1" source="17" target="18">
                    <mxGeometry relative="1" as="geometry"/>
                </mxCell>
                <mxCell id="107" style="edgeStyle=none;html=1;" edge="1" parent="1" source="17" target="45">
                    <mxGeometry relative="1" as="geometry"/>
                </mxCell>
                <mxCell id="17" value="Rsquared" style="whiteSpace=wrap;html=1;" vertex="1" parent="1">
                    <mxGeometry x="550" y="1190" width="120" height="60" as="geometry"/>
                </mxCell>
                <mxCell id="108" style="edgeStyle=none;html=1;" edge="1" parent="1" source="18" target="48">
                    <mxGeometry relative="1" as="geometry"/>
                </mxCell>
                <mxCell id="18" value="correction2" style="whiteSpace=wrap;html=1;" vertex="1" parent="1">
                    <mxGeometry x="850" y="1240" width="120" height="60" as="geometry"/>
                </mxCell>
                <mxCell id="113" style="edgeStyle=none;html=1;startArrow=none;" edge="1" parent="1" source="38" target="47">
                    <mxGeometry relative="1" as="geometry"/>
                </mxCell>
                <mxCell id="114" style="edgeStyle=none;html=1;" edge="1" parent="1" source="20" target="22">
                    <mxGeometry relative="1" as="geometry"/>
                </mxCell>
                <mxCell id="115" style="edgeStyle=none;html=1;" edge="1" parent="1" source="20" target="23">
                    <mxGeometry relative="1" as="geometry"/>
                </mxCell>
                <mxCell id="20" value="ps" style="whiteSpace=wrap;html=1;" vertex="1" parent="1">
                    <mxGeometry x="1460" y="270" width="120" height="60" as="geometry"/>
                </mxCell>
                <mxCell id="130" style="edgeStyle=none;html=1;" edge="1" parent="1" source="21" target="129">
                    <mxGeometry relative="1" as="geometry"/>
                </mxCell>
                <mxCell id="21" value="zz" style="whiteSpace=wrap;html=1;" vertex="1" parent="1">
                    <mxGeometry x="930" y="30" width="120" height="60" as="geometry"/>
                </mxCell>
                <mxCell id="132" style="edgeStyle=none;html=1;" edge="1" parent="1" source="22" target="25">
                    <mxGeometry relative="1" as="geometry"/>
                </mxCell>
                <mxCell id="22" value="CVar" style="whiteSpace=wrap;html=1;" vertex="1" parent="1">
                    <mxGeometry x="1460" y="170" width="120" height="60" as="geometry"/>
                </mxCell>
                <mxCell id="117" style="edgeStyle=none;html=1;" edge="1" parent="1" source="23" target="24">
                    <mxGeometry relative="1" as="geometry"/>
                </mxCell>
                <mxCell id="23" value="job_cvar" style="whiteSpace=wrap;html=1;" vertex="1" parent="1">
                    <mxGeometry x="1710" y="270" width="120" height="60" as="geometry"/>
                </mxCell>
                <mxCell id="24" value="saveplot, job_bar" style="whiteSpace=wrap;html=1;" vertex="1" parent="1">
                    <mxGeometry x="1880" y="270" width="120" height="60" as="geometry"/>
                </mxCell>
                <mxCell id="131" style="edgeStyle=none;html=1;" edge="1" parent="1" source="25" target="26">
                    <mxGeometry relative="1" as="geometry"/>
                </mxCell>
                <mxCell id="25" value="job_cvar_notrearranged&amp;nbsp;" style="whiteSpace=wrap;html=1;" vertex="1" parent="1">
                    <mxGeometry x="1700" y="190" width="120" height="60" as="geometry"/>
                </mxCell>
                <mxCell id="26" value="saveplot,&amp;nbsp;&lt;br&gt;job_cvar_notrearranged&amp;nbsp;" style="whiteSpace=wrap;html=1;" vertex="1" parent="1">
                    <mxGeometry x="1870" y="190" width="120" height="60" as="geometry"/>
                </mxCell>
                <mxCell id="127" style="edgeStyle=none;html=1;" edge="1" parent="1" source="27" target="28">
                    <mxGeometry relative="1" as="geometry"/>
                </mxCell>
                <mxCell id="27" value="CVaR.plugin" style="whiteSpace=wrap;html=1;" vertex="1" parent="1">
                    <mxGeometry x="1490" y="470" width="120" height="60" as="geometry"/>
                </mxCell>
                <mxCell id="128" style="edgeStyle=none;html=1;" edge="1" parent="1" source="28" target="29">
                    <mxGeometry relative="1" as="geometry"/>
                </mxCell>
                <mxCell id="28" value="job_cvar.plugin" style="whiteSpace=wrap;html=1;" vertex="1" parent="1">
                    <mxGeometry x="1700" y="480" width="120" height="60" as="geometry"/>
                </mxCell>
                <mxCell id="29" value="saveplot, job_car.plugin" style="whiteSpace=wrap;html=1;" vertex="1" parent="1">
                    <mxGeometry x="1880" y="490" width="120" height="60" as="geometry"/>
                </mxCell>
                <mxCell id="143" style="edgeStyle=none;html=1;" edge="1" parent="1" source="30" target="31">
                    <mxGeometry relative="1" as="geometry"/>
                </mxCell>
                <mxCell id="30" value="Xbad" style="whiteSpace=wrap;html=1;" vertex="1" parent="1">
                    <mxGeometry x="810" y="580" width="120" height="60" as="geometry"/>
                </mxCell>
                <mxCell id="146" style="edgeStyle=none;html=1;" edge="1" parent="1" source="31" target="144">
                    <mxGeometry relative="1" as="geometry"/>
                </mxCell>
                <mxCell id="31" value="tau.bad.pred" style="whiteSpace=wrap;html=1;" vertex="1" parent="1">
                    <mxGeometry x="990" y="580" width="120" height="60" as="geometry"/>
                </mxCell>
                <mxCell id="125" style="edgeStyle=none;html=1;" edge="1" parent="1" source="33" target="34">
                    <mxGeometry relative="1" as="geometry"/>
                </mxCell>
                <mxCell id="33" value="CVaR.bad" style="whiteSpace=wrap;html=1;" vertex="1" parent="1">
                    <mxGeometry x="1490" y="570" width="120" height="60" as="geometry"/>
                </mxCell>
                <mxCell id="126" style="edgeStyle=none;html=1;" edge="1" parent="1" source="34" target="35">
                    <mxGeometry relative="1" as="geometry"/>
                </mxCell>
                <mxCell id="34" value="job_cvar.bad" style="whiteSpace=wrap;html=1;" vertex="1" parent="1">
                    <mxGeometry x="1700" y="570" width="120" height="60" as="geometry"/>
                </mxCell>
                <mxCell id="35" value="saveplot, job_cvar.bad" style="whiteSpace=wrap;html=1;" vertex="1" parent="1">
                    <mxGeometry x="1870" y="580" width="120" height="60" as="geometry"/>
                </mxCell>
                <mxCell id="122" style="edgeStyle=none;html=1;" edge="1" parent="1" source="37" target="38">
                    <mxGeometry relative="1" as="geometry"/>
                </mxCell>
                <mxCell id="37" value="CVaRmATE" style="whiteSpace=wrap;html=1;" vertex="1" parent="1">
                    <mxGeometry x="1490" y="680" width="120" height="60" as="geometry"/>
                </mxCell>
                <mxCell id="39" value="saveplot, job_cvarvsate" style="whiteSpace=wrap;html=1;" vertex="1" parent="1">
                    <mxGeometry x="1880" y="670" width="120" height="60" as="geometry"/>
                </mxCell>
                <mxCell id="136" style="edgeStyle=none;html=1;" edge="1" parent="1" source="40" target="41">
                    <mxGeometry relative="1" as="geometry"/>
                </mxCell>
                <mxCell id="40" value="bs" style="whiteSpace=wrap;html=1;" vertex="1" parent="1">
                    <mxGeometry x="1260" y="760" width="120" height="60" as="geometry"/>
                </mxCell>
                <mxCell id="121" style="edgeStyle=none;html=1;" edge="1" parent="1" source="41" target="43">
                    <mxGeometry relative="1" as="geometry"/>
                </mxCell>
                <mxCell id="41" value="CVaR.bbound.mATE" style="whiteSpace=wrap;html=1;" vertex="1" parent="1">
                    <mxGeometry x="1500" y="760" width="120" height="60" as="geometry"/>
                </mxCell>
                <mxCell id="118" style="edgeStyle=none;html=1;" edge="1" parent="1" source="43" target="44">
                    <mxGeometry relative="1" as="geometry"/>
                </mxCell>
                <mxCell id="43" value="jobs_bounded_bounds" style="whiteSpace=wrap;html=1;" vertex="1" parent="1">
                    <mxGeometry x="1720" y="760" width="120" height="60" as="geometry"/>
                </mxCell>
                <mxCell id="44" value="saveplot, jobs_bounded_bounds" style="whiteSpace=wrap;html=1;" vertex="1" parent="1">
                    <mxGeometry x="1880" y="760" width="120" height="60" as="geometry"/>
                </mxCell>
                <mxCell id="140" style="edgeStyle=none;html=1;" edge="1" parent="1" source="45" target="47">
                    <mxGeometry relative="1" as="geometry"/>
                </mxCell>
                <mxCell id="45" value="totvar" style="whiteSpace=wrap;html=1;" vertex="1" parent="1">
                    <mxGeometry x="850" y="950" width="120" height="60" as="geometry"/>
                </mxCell>
                <mxCell id="141" style="edgeStyle=none;html=1;" edge="1" parent="1" source="46" target="47">
                    <mxGeometry relative="1" as="geometry"/>
                </mxCell>
                <mxCell id="142" style="edgeStyle=none;html=1;" edge="1" parent="1" source="46" target="48">
                    <mxGeometry relative="1" as="geometry"/>
                </mxCell>
                <mxCell id="46" value="rhox" style="whiteSpace=wrap;html=1;" vertex="1" parent="1">
                    <mxGeometry x="1155" y="1040" width="120" height="60" as="geometry"/>
                </mxCell>
                <mxCell id="57" style="edgeStyle=none;html=1;" edge="1" parent="1" source="47" target="48">
                    <mxGeometry relative="1" as="geometry"/>
                </mxCell>
                <mxCell id="47" value="CVaR.sbound.mATE" style="whiteSpace=wrap;html=1;" vertex="1" parent="1">
                    <mxGeometry x="1500" y="940" width="120" height="60" as="geometry"/>
                </mxCell>
                <mxCell id="56" style="edgeStyle=none;html=1;" edge="1" parent="1" source="48" target="49">
                    <mxGeometry relative="1" as="geometry"/>
                </mxCell>
                <mxCell id="48" value="job_condvar_bounds" style="whiteSpace=wrap;html=1;" vertex="1" parent="1">
                    <mxGeometry x="1720" y="990" width="120" height="60" as="geometry"/>
                </mxCell>
                <mxCell id="49" value="saveplot, job_condvar_bounds" style="whiteSpace=wrap;html=1;" vertex="1" parent="1">
                    <mxGeometry x="1890" y="990" width="120" height="60" as="geometry"/>
                </mxCell>
                <mxCell id="53" style="edgeStyle=none;html=1;" edge="1" parent="1" source="50" target="51">
                    <mxGeometry relative="1" as="geometry"/>
                </mxCell>
                <mxCell id="50" value="CVaR.TE" style="whiteSpace=wrap;html=1;" vertex="1" parent="1">
                    <mxGeometry x="1500" y="860" width="120" height="60" as="geometry"/>
                </mxCell>
                <mxCell id="54" style="edgeStyle=none;html=1;" edge="1" parent="1" source="51" target="52">
                    <mxGeometry relative="1" as="geometry"/>
                </mxCell>
                <mxCell id="51" value="job_cvar_te" style="whiteSpace=wrap;html=1;" vertex="1" parent="1">
                    <mxGeometry x="1710" y="860" width="120" height="60" as="geometry"/>
                </mxCell>
                <mxCell id="52" value="saveplot, job_codvar_bounds" style="whiteSpace=wrap;html=1;" vertex="1" parent="1">
                    <mxGeometry x="1890" y="860" width="120" height="60" as="geometry"/>
                </mxCell>
                <mxCell id="59" style="edgeStyle=none;html=1;" edge="1" parent="1" source="58" target="14">
                    <mxGeometry relative="1" as="geometry"/>
                </mxCell>
                <mxCell id="60" style="edgeStyle=none;html=1;" edge="1" parent="1" source="58" target="15">
                    <mxGeometry relative="1" as="geometry"/>
                </mxCell>
                <mxCell id="58" value="Xall" style="whiteSpace=wrap;html=1;" vertex="1" parent="1">
                    <mxGeometry x="250" y="230" width="120" height="60" as="geometry"/>
                </mxCell>
                <mxCell id="71" value="job_binary" style="whiteSpace=wrap;html=1;" vertex="1" parent="1">
                    <mxGeometry x="620" y="30" width="120" height="60" as="geometry"/>
                </mxCell>
                <mxCell id="84" style="edgeStyle=none;html=1;" edge="1" parent="1" source="83" target="4">
                    <mxGeometry relative="1" as="geometry"/>
                </mxCell>
                <mxCell id="85" style="edgeStyle=none;html=1;" edge="1" parent="1" source="83" target="14">
                    <mxGeometry relative="1" as="geometry"/>
                </mxCell>
                <mxCell id="86" style="edgeStyle=none;html=1;" edge="1" parent="1" source="83" target="15">
                    <mxGeometry relative="1" as="geometry"/>
                </mxCell>
                <mxCell id="87" style="edgeStyle=none;html=1;" edge="1" parent="1" source="83" target="13">
                    <mxGeometry relative="1" as="geometry"/>
                </mxCell>
                <mxCell id="88" style="edgeStyle=none;html=1;" edge="1" parent="1" source="83" target="11">
                    <mxGeometry relative="1" as="geometry"/>
                </mxCell>
                <mxCell id="90" style="edgeStyle=none;html=1;" edge="1" parent="1" source="83" target="12">
                    <mxGeometry relative="1" as="geometry"/>
                </mxCell>
                <mxCell id="83" value="K" style="whiteSpace=wrap;html=1;" vertex="1" parent="1">
                    <mxGeometry x="-240" y="50" width="120" height="60" as="geometry"/>
                </mxCell>
                <mxCell id="124" style="edgeStyle=none;html=1;" edge="1" parent="1" source="38" target="39">
                    <mxGeometry relative="1" as="geometry"/>
                </mxCell>
                <mxCell id="38" value="job_cvarvsate" style="whiteSpace=wrap;html=1;" vertex="1" parent="1">
                    <mxGeometry x="1710" y="690" width="120" height="60" as="geometry"/>
                </mxCell>
                <mxCell id="129" value="all jobs" style="whiteSpace=wrap;html=1;" vertex="1" parent="1">
                    <mxGeometry x="1110" y="30" width="120" height="60" as="geometry"/>
                </mxCell>
                <mxCell id="135" style="edgeStyle=none;html=1;" edge="1" parent="1" source="134" target="129">
                    <mxGeometry relative="1" as="geometry"/>
                </mxCell>
                <mxCell id="134" value="wtdquantile" style="whiteSpace=wrap;html=1;" vertex="1" parent="1">
                    <mxGeometry x="1275" y="30" width="120" height="60" as="geometry"/>
                </mxCell>
                <mxCell id="139" style="edgeStyle=none;html=1;" edge="1" parent="1" source="137" target="138">
                    <mxGeometry relative="1" as="geometry"/>
                </mxCell>
                <mxCell id="137" value="job_binary" style="whiteSpace=wrap;html=1;" vertex="1" parent="1">
                    <mxGeometry x="980" y="190" width="120" height="60" as="geometry"/>
                </mxCell>
                <mxCell id="138" value="all CVar" style="whiteSpace=wrap;html=1;" vertex="1" parent="1">
                    <mxGeometry x="1150" y="200" width="120" height="60" as="geometry"/>
                </mxCell>
                <mxCell id="145" style="edgeStyle=none;html=1;" edge="1" parent="1" source="144" target="33">
                    <mxGeometry relative="1" as="geometry"/>
                </mxCell>
                <mxCell id="144" value="job_binary" style="whiteSpace=wrap;html=1;" vertex="1" parent="1">
                    <mxGeometry x="1190" y="580" width="120" height="60" as="geometry"/>
                </mxCell>
            </root>
        </mxGraphModel>
    </diagram>
</mxfile>